<?xml version="1.0" standalone="no"?>
<!DOCTYPE svg PUBLIC "-//W3C//DTD SVG 20010904//EN"
 "http://www.w3.org/TR/2001/REC-SVG-20010904/DTD/svg10.dtd">
<svg version="1.0" xmlns="http://www.w3.org/2000/svg"
 width="700.000000pt" height="700.000000pt" viewBox="0 0 700.000000 700.000000"
 preserveAspectRatio="xMidYMid meet">
<metadata>
Created by potrace 1.14, written by Peter Selinger 2001-2017
</metadata>
<g transform="translate(0.000000,700.000000) scale(0.100000,-0.100000)"
fill="#000000" stroke="none">
<path d="M2386 5840 c-33 -137 -63 -255 -66 -261 -4 -6 -191 -47 -416 -91
-225 -45 -412 -84 -417 -88 -4 -3 4 -62 18 -131 14 -68 34 -180 45 -249 11
-69 54 -291 96 -495 143 -698 153 -750 159 -810 4 -33 9 -63 11 -67 2 -4 5
-44 5 -90 0 -91 8 -57 -261 -1183 -77 -324 -142 -599 -143 -609 -1 -14 7 -22
29 -28 28 -7 32 -12 37 -57 12 -97 70 -171 169 -215 32 -14 153 -49 270 -77
331 -81 362 -104 413 -304 39 -157 86 -235 169 -277 79 -41 157 -37 471 25
376 75 495 91 650 91 202 -1 275 -12 645 -101 393 -94 498 -96 587 -13 47 45
77 102 112 216 62 200 93 221 421 288 118 24 240 54 270 65 74 28 123 70 154
133 47 95 41 150 -83 775 -163 813 -164 824 -162 1033 1 85 3 164 5 175 1 11
6 47 11 80 9 69 40 209 193 850 135 565 136 568 130 659 -6 91 -38 151 -104
197 -61 41 -116 60 -359 119 -237 59 -253 64 -304 113 -41 38 -62 85 -105 229
-16 51 -40 104 -59 130 -35 47 -123 98 -168 98 -44 0 -58 10 -65 46 -3 19 -9
34 -13 34 -4 0 -231 -45 -506 -100 -275 -55 -523 -100 -552 -100 -86 0 -229
27 -542 101 -161 38 -330 73 -375 78 -44 6 -129 21 -188 35 -59 14 -111 26
-115 26 -5 0 -35 -113 -67 -250z m627 103 c296 -70 534 -129 530 -130 -24 -8
-1199 -241 -1201 -238 -8 7 114 495 123 495 6 1 252 -57 548 -127z m2145
-2085 c238 -1194 430 -2173 428 -2175 -6 -6 -3216 -646 -3220 -642 -9 9 -868
4341 -862 4346 7 7 3166 640 3201 642 19 1 48 -140 453 -2171z m207 1525 c154
-36 283 -69 286 -72 4 -3 -8 -67 -26 -141 -18 -74 -92 -385 -165 -690 -73
-305 -135 -558 -139 -562 -5 -6 -312 1509 -311 1536 0 11 29 5 355 -71z
m-3128 -3810 c-7 -6 -787 175 -800 187 -6 5 358 1558 404 1720 12 44 18 15
207 -928 107 -535 192 -975 189 -979z m2427 -431 c-15 -66 -30 -126 -35 -133
-6 -10 -74 3 -293 56 -157 38 -284 71 -281 73 6 6 629 131 633 127 1 -1 -9
-56 -24 -123z"/>
</g>
</svg>
